<svg xmlns="http://www.w3.org/2000/svg" version="1.1" xmlns:xlink="http://www.w3.org/1999/xlink" xmlns:svgjs="http://svgjs.com/svgjs" width="1000" height="1000"><svg version="1.1" id="SvgjsSvg1002" xmlns="http://www.w3.org/2000/svg" xmlns:xlink="http://www.w3.org/1999/xlink" x="0px" y="0px" viewBox="0 0 1000 1000" style="enable-background:new 0 0 1000 1000;" xml:space="preserve">
<style type="text/css">
	.st0{display:none;}
	.st1{display:inline;fill:none;stroke:#FF0000;stroke-width:18;stroke-miterlimit:10;}
</style>
<path d="M885.8,533.5c0,154.1-124.9,279.1-279.1,279.1H426.5v-191h117.1v73.8h63c89.4,0,161.9-72.5,161.9-161.9
	S696,371.6,606.5,371.6h-63V254.5h63C760.8,254.5,885.8,379.4,885.8,533.5z"></path>
<g id="SvgjsG1001">
</g>
<polygon points="399.2,437.5 543.5,437.5 543.5,554.6 331.7,554.6 249.5,695.5 114.2,695.5 408.3,187.4 543.5,187.4 "></polygon>
<g id="SvgjsG1000" class="st0">
	<path class="st1" d="M567.3,313h49.7c121.6,0,220.2,98.6,220.2,220.2S738.7,753.4,617,753.4H485V602.8"></path>
</g>
</svg><style>@media (prefers-color-scheme: light) { :root { filter: none; } }
@media (prefers-color-scheme: dark) { :root { filter: invert(100%); } }
</style></svg>