<?xml version="1.0" encoding="utf-8"?>
<!-- Generator: Adobe Illustrator 26.0.2, SVG Export Plug-In . SVG Version: 6.00 Build 0)  -->
<svg version="1.1" xmlns="http://www.w3.org/2000/svg" xmlns:xlink="http://www.w3.org/1999/xlink" x="0px" y="0px"
	 viewBox="0 0 771.5 625.2" style="enable-background:new 0 0 771.5 625.2;" xml:space="preserve">
<style type="text/css">
	.st0{display:none;}
	.st1{display:inline;fill:none;stroke:#FF0000;stroke-width:18;stroke-miterlimit:10;}
</style>
<g id="D">
	<path d="M771.5,346.1c0,154.1-124.9,279.1-279.1,279.1H312.2v-191h117.1V508h63c89.4,0,161.9-72.5,161.9-161.9
		s-72.5-161.9-161.9-161.9h-63V67.1h63C646.5,67.1,771.5,192,771.5,346.1z"/>
</g>
<g id="A">
</g>
<g id="Ebene_3">
	<polygon points="285,250.1 429.3,250.1 429.3,367.2 217.4,367.2 135.2,508.1 0,508.1 294.1,0 429.3,0 	"/>
</g>
<g id="Pfad_animation" class="st0">
	<path class="st1" d="M453.1,125.6h49.7c121.6,0,220.2,98.6,220.2,220.2S624.4,566,502.8,566h-132V415.4"/>
</g>
</svg>
