<?xml version="1.0" encoding="utf-8"?>
<!-- Generator: Adobe Illustrator 26.0.2, SVG Export Plug-In . SVG Version: 6.00 Build 0)  -->
<svg version="1.1" id="Ebene_1" xmlns="http://www.w3.org/2000/svg" xmlns:xlink="http://www.w3.org/1999/xlink" x="0px" y="0px"
	 viewBox="0 0 100 100" style="enable-background:new 0 0 100 100;" xml:space="preserve">
<path d="M68.5,100c-2.4,0-4.3-1.9-4.3-4.3V78.8c0-0.1,0-0.2,0-0.3c0.2-2.9-0.8-5.8-2.9-8c-1.2-1.2-1.5-2.9-1-4.5
	c0.6-1.6,2-2.7,3.6-2.8C76.4,61.8,88,57.7,88,37.1c0-5-1.9-9.7-5.3-13.3c-1.1-1.2-1.5-3-0.9-4.5c1.3-3.4,1.5-7,0.6-10.4
	c-2.1,0.5-5.9,1.8-11.5,5.6c-1,0.7-2.3,0.9-3.6,0.6c-9.2-2.5-18.9-2.5-28.1,0c-1.2,0.3-2.5,0.1-3.6-0.6c-5.6-3.8-9.4-5.1-11.5-5.6
	c-0.8,3.4-0.6,7,0.6,10.4c0.6,1.6,0.2,3.3-0.9,4.5c-3.5,3.6-5.3,8.4-5.3,13.4c0,20.3,11.6,24.5,24.2,26.1c1.6,0.2,3,1.3,3.6,2.9
	c0.5,1.6,0.2,3.3-1,4.5c-2,2.1-3.1,5-2.9,7.9c0,0.1,0,0.2,0,0.3v3.7c0,0.1,0,0.1,0,0.2v12.9c0,2.4-1.9,4.3-4.3,4.3s-4.3-1.9-4.3-4.3
	v-7.6c-13.1,2-18.6-5-22.5-9.9c-1.7-2.1-3.1-4-4.6-4.4c-2.3-0.6-3.7-2.9-3.2-5.3c0.6-2.3,2.9-3.7,5.3-3.2c4.4,1.1,7,4.5,9.4,7.4
	c3.6,4.6,6.6,8.3,15.6,6.5V79c-0.2-2.8,0.3-5.6,1.3-8.2C22.8,68,9.8,60.5,9.8,37.2c0-6.4,2.1-12.5,6-17.4
	c-1.5-5.7-1.1-11.6,1.3-17.1c0.5-1.2,1.5-2.1,2.8-2.5c1.6-0.5,7.5-1.4,19,5.9C48.3,4,58.2,4,67.7,6.2c11.5-7.3,17.4-6.4,19-5.9
	c1.2,0.4,2.2,1.3,2.8,2.5c2.3,5.4,2.8,11.4,1.3,17.1c3.9,4.9,6,11,6,17.3c0,24.6-15,31.5-25.1,33.7c1,2.6,1.4,5.4,1.3,8.2v16.6
	C72.8,98,70.8,100,68.5,100z"/>
</svg>
